#!OML:ASF G:\JayActor3\Patient Classification 1\Patient 1\Session 6\male.ASF
:FULLY-SPECIFIED
:DEGREES
741
root 14.9866 15.8328 -13.8934 2.34517 -133.877 -0.323786
lowerback 1.46113 -7.14958 -3.62106
upperback -2.4941 -9.64258 1.88249
thorax -2.47158 -4.73731 4.20633
lowerneck -3.42674 5.36291 5.07331
upperneck 12.4651 7.1846 -5.30765
head 4.67244 3.34637 -2.09201
rclavicle 3.09607e-014 2.34566e-014
rhumerus -42.8806 -28.5442 -25.9459
rradius 22.3128
rwrist 4.0846
rhand -22.1763 -14.6032
rfingers 7.12502
rthumb 4.23852 -44.5408
lclavicle 3.09607e-014 2.34566e-014
lhumerus 1.8526 -12.7378 69.5142
lradius 53.4238
lwrist 33.0916
lhand -0.0249705 14.1204
lfingers 7.12502
lthumb 25.5665 42.4246
rfemur -31.1883 -0.82577 19.7213
rtibia 49.8322
rfoot -25.8369 -27.6256
rtoes 5.74303
lfemur 30.5731 9.22787 -16.4977
ltibia 0
lfoot -8.00822 13.2906
ltoes -8.21662
742
root 14.9239 15.8661 -13.9441 2.78422 -133.755 -0.766801
lowerback 1.55738 -7.12667 -3.69849
upperback -2.49583 -9.61679 1.87188
thorax -2.51897 -4.72089 4.25045
lowerneck -3.65909 5.28456 5.04907
upperneck 12.2197 7.08162 -5.28844
head 4.62914 3.30368 -2.08347
rclavicle 3.02898e-014 1.35174e-014
rhumerus -42.3439 -28.281 -26.7072
rradius 22.617
rwrist 3.59489
rhand -21.3008 -14.5361
rfingers 7.12502
rthumb 5.08395 -44.4551
lclavicle 3.02898e-014 1.35174e-014
lhumerus 1.14401 -13.0498 69.5266
lradius 53.7966
lwrist 32.9126
lhand 1.14979 14.6696
lfingers 7.12502
lthumb 26.6912 42.8075
rfemur -30.7458 -0.68525 19.308
rtibia 49.4885
rfoot -26.0239 -27.6727
rtoes 5.73425
lfemur 30.5759 9.63159 -16.6173
ltibia -2.8625e-014
lfoot -6.65207 13.3845
ltoes -8.10045
743
root 14.8618 15.8975 -13.9924 3.25836 -133.636 -1.30052
lowerback 1.69254 -7.09767 -3.82528
upperback -2.47528 -9.5853 1.83322
thorax -2.56254 -4.70071 4.2958
lowerneck -3.87507 5.19991 5.00949
upperneck 11.9154 6.97124 -5.27061
head 4.56426 3.25788 -2.07431
rclavicle -8.15141e-014 1.39149e-014
rhumerus -41.7992 -28.0214 -27.5009
rradius 22.9607
rwrist 3.22834
rhand -20.3386 -14.4239
rfingers 7.12502
rthumb 6.0129 -44.3186
lclavicle -8.15141e-014 1.39149e-014
lhumerus 0.513215 -13.3188 69.4883
lradius 54.0493
lwrist 32.8226
lhand 1.97961 15.0381
lfingers 7.12502
lthumb 27.4851 43.0524
rfemur -30.2886 -0.584735 18.8241
rtibia 49.1653
rfoot -26.198 -27.6924
rtoes 5.71458
lfemur 27.0965 10.0822 -16.7964
ltibia 6.46132
lfoot -8.08456 12.4723
ltoes -7.96398
744
root 14.8 15.9268 -14.0387 3.73191 -133.495 -1.87293
lowerback 1.86006 -7.06686 -3.96634
upperback -2.43358 -9.55285 1.77967
thorax -2.60269 -4.67991 4.33628
lowerneck -4.07801 5.10705 4.95156
upperneck 11.5743 6.85085 -5.25542
head 4.48496 3.20672 -2.06436
rclavicle -8.42847e-014 -7.15625e-015
rhumerus -41.2463 -27.739 -28.3252
rradius 23.3463
rwrist 2.94767
rhand -19.3368 -14.2941
rfingers 7.12502
rthumb 6.98006 -44.1591
lclavicle -8.42847e-014 -7.15625e-015
lhumerus -0.0408082 -13.5341 69.4161
lradius 54.1844
lwrist 32.7994
lhand 2.47949 15.2281
lfingers 7.12502
lthumb 27.9631 43.1655
rfemur -29.8019 -0.52099 18.3101
rtibia 48.8468
rfoot -26.3786 -27.7069
rtoes 5.69398
lfemur 25.4447 10.4683 -16.9601
ltibia 9.61586
lfoot -7.97637 12.0324
ltoes -7.82372
745
root 14.7392 15.9542 -14.0827 4.13752 -133.339 -2.38553
lowerback 2.06561 -7.03088 -4.05291
upperback -2.37141 -9.51286 1.72723
thorax -2.65206 -4.65631 4.35249
lowerneck -4.26599 5.00542 4.87869
upperneck 11.2068 6.71887 -5.23909
head 4.39415 3.14948 -2.05306
rclavicle 3.74958e-014 -5.1684e-015
rhumerus -40.6906 -27.4501 -29.1652
rradius 23.7616
rwrist 2.76068
rhand -18.3376 -14.1447
rfingers 7.12502
rthumb 7.94451 -43.9754
lclavicle 3.74958e-014 -5.1684e-015
lhumerus -0.516658 -13.6945 69.3072
lradius 54.2106
lwrist 32.8652
lhand 2.63912 15.2455
lfingers 7.12502
lthumb 28.1157 43.1579
rfemur -29.2804 -0.476924 17.8445
rtibia 48.5078
rfoot -26.5602 -27.7277
rtoes 5.68502
lfemur 23.9764 10.8255 -17.0437
ltibia 12.4742
lfoot -7.64974 11.5974
ltoes -7.61889
746
root 14.6794 15.9803 -14.1238 4.41029 -133.161 -2.75178
lowerback 2.31367 -6.98974 -4.02701
upperback -2.28388 -9.46268 1.69233
thorax -2.71458 -4.62973 4.33038
lowerneck -4.44985 4.89608 4.79753
upperneck 10.8279 6.57624 -5.22346
head 4.29862 3.08635 -2.04157
rclavicle -6.01665e-014 1.47101e-014
rhumerus -40.1203 -27.1117 -30.043
rradius 24.2077
rwrist 2.62606
rhand -17.3846 -13.9996
rfingers 7.12502
rthumb 8.86423 -43.7934
lclavicle -6.01665e-014 1.47101e-014
lhumerus -0.90471 -13.7913 69.1648
lradius 54.1324
lwrist 32.9988
lhand 2.49418 15.1312
lfingers 7.12502
lthumb 27.9771 43.0663
rfemur -28.7074 -0.438863 17.4942
rtibia 48.1199
rfoot -26.7325 -27.779
rtoes 5.68104
lfemur 22.5503 11.3428 -16.9002
ltibia 15.324
lfoot -7.15979 10.9236
ltoes -7.27432
747
root 14.6207 16.0052 -14.1617 4.51338 -132.961 -2.91846
lowerback 2.61083 -6.94389 -3.85637
upperback -2.1756 -9.40098 1.68861
thorax -2.80139 -4.59978 4.26775
lowerneck -4.62568 4.78179 4.7135
upperneck 10.4501 6.42678 -5.21335
head 4.20207 3.01887 -2.03198
rclavicle 1.9265e-014 -1.59028e-015
rhumerus -39.5272 -26.7007 -30.9599
rradius 24.6817
rwrist 2.50695
rhand -16.5013 -13.8756
rfingers 7.12502
rthumb 9.71652 -43.6315
lclavicle 1.9265e-014 -1.59028e-015
lhumerus -1.20974 -13.8173 68.9963
lradius 53.9527
lwrist 33.169
lhand 2.09555 14.9037
lfingers 7.12502
lthumb 27.596 42.9003
rfemur -28.0765 -0.394401 17.2991
rtibia 47.6616
rfoot -26.9017 -27.8657
rtoes 5.70604
lfemur 21.087 11.8168 -16.5896
ltibia 18.2626
lfoot -6.60657 10.2054
ltoes -6.72766
748
root 14.563 16.0295 -14.196 4.42033 -132.732 -2.84808
lowerback 2.95406 -6.89615 -3.51667
upperback -2.04593 -9.32888 1.72501
thorax -2.91207 -4.56767 4.15996
lowerneck -4.79581 4.66443 4.62707
upperneck 10.0813 6.27273 -5.20609
head 4.10736 2.94818 -2.02328
rclavicle 1.96176e-014 -1.19271e-014
rhumerus -38.9021 -26.1892 -31.9221
rradius 25.1844
rwrist 2.35905
rhand -15.6992 -13.7903
rfingers 7.12502
rthumb 10.4903 -43.5085
lclavicle 1.96176e-014 -1.19271e-014
lhumerus -1.42859 -13.7702 68.8088
lradius 53.674
lwrist 33.3624
lhand 1.48715 14.5889
lfingers 7.12502
lthumb 27.014 42.6771
rfemur -27.3845 -0.372047 17.2867
rtibia 47.1221
rfoot -27.0395 -27.9843
rtoes 5.72886
lfemur 19.5718 12.2451 -16.0864
ltibia 21.299
lfoot -5.98039 9.43897
ltoes -5.92386
749
root 14.5059 16.0535 -14.2271 4.17232 -132.485 -2.57477
lowerback 3.31497 -6.84398 -3.03726
upperback -1.89639 -9.24203 1.79611
thorax -3.02871 -4.53139 4.01267
lowerneck -4.96232 4.54376 4.54506
upperneck 9.72779 6.11314 -5.19953
head 4.01686 2.8741 -2.01583
rclavicle -8.56016e-015 7.15625e-015
rhumerus -38.2526 -25.585 -32.9145
rradius 25.714
rwrist 2.18181
rhand -15.0133 -13.7354
rfingers 7.12502
rthumb 11.152 -43.419
lclavicle -8.56016e-015 7.15625e-015
lhumerus -1.55068 -13.653 68.6051
lradius 53.2965
lwrist 33.5511
lhand 0.728788 14.2132
lfingers 7.12502
lthumb 26.2882 42.4118
rfemur -26.6563 -0.361047 17.428
rtibia 46.5062
rfoot -27.1462 -28.1335
rtoes 5.7445
lfemur 17.985 12.63 -15.4291
ltibia 24.4164
lfoot -5.28091 8.63104
ltoes -4.80691
750
root 14.4487 16.0774 -14.2555 3.83261 -132.21 -2.18331
lowerback 3.67856 -6.78985 -2.47399
upperback -1.72749 -9.14536 1.88686
thorax -3.13644 -4.49276 3.83804
lowerneck -5.12778 4.41743 4.46428
upperneck 9.3958 5.94464 -5.18716
head 3.93238 2.79511 -2.00722
rclavicle 1.70334e-014 -5.96354e-015
rhumerus -37.5901 -24.9097 -33.9089
rradius 26.2691
rwrist 1.987
rhand -14.4554 -13.715
rfingers 7.12502
rthumb 11.69 -43.3688
lclavicle 1.70334e-014 -5.96354e-015
lhumerus -1.57596 -13.48 68.3966
lradius 52.8271
lwrist 33.7344
lhand -0.150698 13.7951
lfingers 7.12502
lthumb 25.446 42.1166
rfemur -25.8995 -0.431633 17.6533
rtibia 45.8287
rfoot -27.1868 -28.276
rtoes 5.70963
lfemur 16.3312 12.9564 -14.6924
ltibia 27.5766
lfoot -4.49939 7.79707
ltoes -3.31337
751
root 14.3916 16.1008 -14.2816 3.44733 -131.92 -1.71914
lowerback 4.02885 -6.72891 -1.86734
upperback -1.54361 -9.03415 1.99057
thorax -3.2257 -4.44879 3.64848
lowerneck -5.33886 4.28586 4.40945
upperneck 8.8187 5.73792 -4.99303
head 4.19087 2.72191 -2.16418
rclavicle 5.40943e-014 -2.78299e-015
rhumerus -36.929 -24.1956 -34.8745
rradius 26.8414
rwrist 1.8072
rhand -14.031 -13.6965
rfingers 7.12502
rthumb 12.0992 -43.3266
lclavicle 5.40943e-014 -2.78299e-015
lhumerus -1.49924 -13.2589 68.186
lradius 52.2655
lwrist 33.8948
lhand -1.09722 13.3348
lfingers 7.12502
lthumb 24.539 41.7824
rfemur -25.1419 -0.557894 17.9262
rtibia 45.1106
rfoot -27.1666 -28.4221
rtoes 5.61647
lfemur 14.6055 13.2273 -13.9236
ltibia 30.7392
lfoot -3.72491 6.89872
ltoes -1.55509
